HIERARCHY
ROOT Hips
{
	OFFSET 0.000000 0.000000 0.000000
	CHANNELS 6 Xposition Yposition Zposition Zrotation Yrotation Xrotation 
	JOINT LHipJoint
	{
		OFFSET 0.000000 0.000000 0.000000
		CHANNELS 3 Zrotation Yrotation Xrotation
		JOINT LeftUpLeg
		{
			OFFSET 1.363060 -1.794630 0.839290
			CHANNELS 3 Zrotation Yrotation Xrotation
			JOINT LeftLeg
			{
				OFFSET 2.448110 -6.726130 0.000000
				CHANNELS 3 Zrotation Yrotation Xrotation
				JOINT LeftFoot
				{
					OFFSET 2.562200 -7.039590 0.000000
					CHANNELS 3 Zrotation Yrotation Xrotation
					JOINT LeftToeBase
					{
						OFFSET 0.157640 -0.433110 2.322550
						CHANNELS 3 Zrotation Yrotation Xrotation
						End Site
						{
							OFFSET 0.000000 0.000000 0.000000
						}
					}
				}
			}
		}
	}
	JOINT RHipJoint
	{
		OFFSET 0.000000 0.000000 0.000000
		CHANNELS 3 Zrotation Yrotation Xrotation
		JOINT RightUpLeg
		{
			OFFSET -1.305520 -1.794630 0.839290
			CHANNELS 3 Zrotation Yrotation Xrotation
			JOINT RightLeg
			{
				OFFSET -2.542530 -6.985550 0.000000
				CHANNELS 3 Zrotation Yrotation Xrotation
				JOINT RightFoot
				{
					OFFSET -2.568260 -7.056230 0.000000
					CHANNELS 3 Zrotation Yrotation Xrotation
					JOINT RightToeBase
					{
						OFFSET -0.164730 -0.452590 2.363150
						CHANNELS 3 Zrotation Yrotation Xrotation
						End Site
						{
							OFFSET 0.000000 0.000000 0.000000
						}
					}
				}
			}
		}
	}
}
MOTION
Frames: 25
Frame Time: 0.008333
1.173822 17.108650 2.334882 -6.894930 -73.756611 24.336440 -9.876951 -0.564980 3.064051 -7.205171 -15.794036 -29.705768 -0.720955 0.384969 27.326898 2.849398 14.110546 -12.026852 -0.811600 -0.000000 -30.902200 9.420633 0.339525 -1.394602 3.410402 -2.359823 -30.443901 -0.326833 -2.682948 42.352894 -4.373157 -23.927402 6.022571 -6.942500 -0.000000 -67.990100
1.189297 17.105536 2.349835 -7.246747 -73.409103 24.227121 -9.909019 -0.576206 3.004627 -7.173685 -15.804448 -29.256805 -0.722324 0.417831 27.541249 2.814397 13.959276 -12.141383 -0.849300 0.000001 -30.907200 9.458063 0.423091 -1.529889 3.571554 -2.567498 -31.575788 -0.452200 -2.892498 45.208241 -4.354239 -24.080209 6.829563 -7.207800 -0.000000 -67.327500
1.204639 17.102837 2.364149 -7.635743 -73.031082 24.145722 -9.946439 -0.582174 2.951662 -7.119556 -15.786049 -28.814433 -0.725284 0.450965 27.743199 2.770730 13.761971 -12.240479 -0.880100 -0.000001 -30.973800 9.493611 0.503872 -1.676066 3.784870 -2.865012 -32.760247 -0.567938 -3.100995 48.077629 -4.325461 -24.119793 7.345123 -7.326500 -0.000000 -66.526600
1.219845 17.100733 2.377881 -8.063624 -72.622184 24.092320 -9.989580 -0.582290 2.905266 -7.040869 -15.733824 -28.377520 -0.730013 0.484133 27.928119 2.717565 13.514183 -12.321052 -0.902800 0.000000 -31.119700 9.527255 0.580513 -1.835296 4.051121 -3.259847 -33.992871 -0.676292 -3.311194 50.945302 -4.287125 -24.047153 7.524881 -7.283801 -0.000000 -65.631100
1.234624 17.099357 2.391027 -8.529400 -72.185641 24.071991 -10.038269 -0.576181 2.866707 -6.935011 -15.642722 -27.952714 -0.736306 0.516483 28.092408 2.654871 13.214667 -12.380343 -0.916300 -0.000000 -31.360200 9.558895 0.652119 -2.005656 4.369038 -3.749809 -35.278888 -0.780143 -3.525031 53.795960 -4.240148 -23.871152 7.351680 -7.080300 0.000001 -64.704900
1.248825 17.098833 2.403573 -9.028468 -71.727588 24.085757 -10.091431 -0.563886 2.837667 -6.802272 -15.511453 -27.548472 -0.743710 0.546956 28.233199 2.583573 12.867254 -12.415385 -0.919900 0.000000 -31.712500 9.588557 0.718992 -2.183442 4.732805 -4.328186 -36.628974 -0.882157 -3.744014 56.616636 -4.184688 -23.599201 6.833452 -6.727200 0.000000 -63.762700
1.262674 17.099416 2.415644 -9.575387 -71.255023 24.145345 -10.149955 -0.546866 2.814937 -6.638519 -15.333023 -27.158927 -0.751581 0.575165 28.346913 2.504358 12.475679 -12.426484 -0.914200 0.000000 -32.171100 9.614061 0.781181 -2.367591 5.142127 -4.981061 -38.034939 -0.983834 -3.967726 59.380028 -4.121684 -23.248478 6.015290 -6.253301 -0.000000 -62.904500
1.275967 17.101222 2.427176 -10.162307 -70.778085 24.250456 -10.212314 -0.525877 2.799080 -6.445527 -15.109553 -26.789347 -0.759134 0.599958 28.431042 2.419446 12.050893 -12.412716 -0.899600 0.000000 -32.738900 9.634809 0.839832 -2.552664 5.588503 -5.690967 -39.506559 -1.086403 -4.196126 62.072558 -4.050461 -22.822730 4.950419 -5.686600 -0.000000 -62.106900
1.288879 17.104404 2.438198 -10.793392 -70.306974 24.405721 -10.277986 -0.502621 2.788037 -6.223144 -14.842054 -26.436792 -0.765433 0.620750 28.483426 2.331028 11.604743 -12.374882 -0.877500 0.000000 -33.409900 9.649083 0.896046 -2.734839 6.066731 -6.436298 -41.044298 -1.190375 -4.428249 64.676400 -3.970461 -22.327334 3.712322 -5.062200 0.000000 -61.383900
1.301558 17.109112 2.448772 -11.477475 -69.852616 24.619288 -10.347025 -0.479124 2.778363 -5.970333 -14.530222 -26.094269 -0.769641 0.637256 28.503561 2.241308 11.148936 -12.317729 -0.850000 0.000001 -34.158900 9.654924 0.950339 -2.910938 6.573868 -7.192534 -42.643247 -1.296024 -4.662664 67.175963 -3.880925 -21.765473 2.380618 -4.415900 -0.000000 -60.745900
1.314059 17.115289 2.458733 -12.197211 -69.422638 24.878352 -10.416666 -0.456284 2.771292 -5.693652 -14.189435 -25.763258 -0.770746 0.648842 28.489582 2.153625 10.702695 -12.238397 -0.817800 0.000000 -35.010900 9.652401 1.005375 -3.076075 7.097490 -7.942068 -44.313278 -1.404218 -4.898738 69.566760 -3.780335 -21.132909 1.032978 -3.779500 0.000000 -60.203201
1.326820 17.123068 2.468252 -12.980638 -69.025144 25.200918 -10.489073 -0.437001 2.759993 -5.387322 -13.814112 -25.426909 -0.768193 0.656222 28.443448 2.069061 10.271972 -12.147518 -0.784200 -0.000000 -35.899400 9.638784 1.060296 -3.230084 7.642337 -8.658083 -46.034665 -1.515301 -5.134072 71.836357 -3.668453 -20.435336 -0.257771 -3.183300 0.000000 -59.782600
1.339822 17.132438 2.477335 -13.827158 -68.664749 25.587013 -10.563834 -0.422412 2.742638 -5.051942 -13.411148 -25.078092 -0.761455 0.659613 28.365953 1.989308 9.866651 -12.048714 -0.750601 0.000000 -36.808700 9.613681 1.115613 -3.370971 8.204845 -9.321875 -47.801080 -1.630272 -5.367070 73.984121 -3.544920 -19.674211 -1.437007 -2.647300 -0.000000 -59.503700
1.353186 17.143230 2.485946 -14.733377 -68.340188 26.031469 -10.640144 -0.413281 2.719247 -4.688853 -12.992964 -24.713356 -0.749961 0.659506 28.258974 1.915771 9.495626 -11.942937 -0.717900 0.000000 -37.746400 9.577251 1.172486 -3.497859 8.779774 -9.922935 -49.608210 -1.750151 -5.596512 76.014409 -3.409592 -18.851058 -2.467956 -2.183100 -0.000001 -59.396899
1.367037 17.155404 2.494175 -15.709059 -68.049564 26.539112 -10.718949 -0.410580 2.687601 -4.294671 -12.562468 -24.324333 -0.733572 0.656740 28.125075 1.848513 9.159434 -11.835697 -0.687100 -0.000000 -38.680000 9.529102 1.230489 -3.611402 9.368036 -10.449507 -51.441876 -1.875409 -5.820650 77.931205 -3.263640 -17.973820 -3.337227 -1.793000 -0.000001 -59.471500
1.381292 17.168804 2.502129 -16.753483 -67.787014 27.109164 -10.800435 -0.414354 2.647841 -3.867670 -12.126277 -23.908555 -0.712247 0.652006 27.966666 1.787368 8.857260 -11.729321 -0.658700 -0.000001 -39.593800 9.469633 1.289592 -3.712195 9.967801 -10.896812 -53.292256 -2.006188 -6.038285 79.742530 -3.108814 -17.051515 -4.051858 -1.471400 0.000000 -59.726500
1.395882 17.183269 2.509914 -17.864839 -67.544460 27.739475 -10.884745 -0.424312 2.601093 -3.406272 -11.691045 -23.466456 -0.686052 0.645993 27.786366 1.731692 8.585383 -11.624749 -0.632500 0.000000 -40.477601 9.399365 1.349939 -3.800878 10.576507 -11.263978 -55.151829 -2.142075 -6.248593 81.457523 -2.947708 -16.096424 -4.636614 -1.207500 0.000000 -60.145800
1.410605 17.198585 2.517599 -19.029111 -67.311527 28.420540 -10.970849 -0.439391 2.551114 -2.912180 -11.268226 -23.005899 -0.655109 0.639038 27.586938 1.681102 8.341300 -11.520690 -0.608000 -0.000001 -41.326500 9.319371 1.412389 -3.877142 11.188451 -11.555851 -57.021215 -2.282558 -6.451631 83.087832 -2.783428 -15.122677 -5.126238 -0.988700 -0.000000 -60.704800
1.425433 17.214614 2.525388 -20.247297 -67.080142 29.152970 -11.059778 -0.459226 2.498143 -2.382674 -10.856760 -22.528274 -0.619804 0.631808 27.370280 1.634026 8.115423 -11.417604 -0.584699 -0.000000 -42.121500 9.229657 1.476630 -3.942242 11.802593 -11.774575 -58.892345 -2.426119 -6.646964 84.640034 -2.619714 -14.148704 -5.564334 -0.801800 -0.000000 -61.343400
1.440059 17.231180 2.533342 -21.501144 -66.841930 29.925906 -11.150612 -0.482527 2.445683 -1.820804 -10.463674 -22.043600 -0.580510 0.624410 27.138561 1.589761 7.903054 -11.313184 -0.562000 0.000000 -42.863100 9.131007 1.543570 -3.995450 12.412575 -11.927058 -60.769630 -2.571689 -6.835216 86.122912 -2.460362 -13.193350 -5.990848 -0.636400 -0.000000 -62.005600
1.454016 17.248022 2.541390 -22.752963 -66.586891 30.715545 -11.240164 -0.507307 2.400607 -1.236316 -10.106798 -21.570079 -0.537488 0.616250 26.893853 1.548761 7.706425 -11.202920 -0.539100 0.000000 -43.555400 9.024867 1.615783 -4.033355 13.004702 -12.023527 -62.672300 -2.719093 -7.018160 87.546492 -2.309161 -12.276061 -6.434000 -0.486800 0.000000 -62.653000
1.467189 17.264955 2.549477 -23.981503 -66.310005 31.507048 -11.327029 -0.532717 2.365812 -0.635840 -9.794071 -21.118586 -0.491110 0.607215 26.639331 1.510879 7.524494 -11.085099 -0.515601 0.000000 -44.189700 8.911668 1.694811 -4.054465 13.569894 -12.071119 -64.610352 -2.867896 -7.196918 88.915915 -2.169643 -11.416913 -6.913576 -0.349400 0.000000 -63.226600
1.479489 17.281890 2.557620 -25.176667 -66.011232 32.292922 -11.411180 -0.558539 2.340306 -0.023840 -9.522117 -20.690621 -0.441918 0.597398 26.375840 1.475559 7.354222 -10.958883 -0.491400 0.000000 -44.757600 8.791464 1.781197 -4.058436 14.101722 -12.072413 -66.584753 -3.017538 -7.371827 90.232398 -2.044832 -10.634388 -7.438944 -0.222500 -0.000000 -63.655600
1.490851 17.298576 2.565583 -26.311795 -65.689446 33.052399 -11.490132 -0.584165 2.326353 0.588802 -9.302166 -20.294617 -0.390231 0.586470 26.106298 1.443694 7.201460 -10.822748 -0.466500 0.000000 -45.254100 8.665203 1.877086 -4.043331 14.587201 -12.034996 -68.608797 -3.168887 -7.544213 91.500052 -1.936847 -9.942050 -8.000924 -0.107000 -0.000000 -63.913300
1.501216 17.314938 2.573195 -27.374723 -65.348720 33.774567 -11.562911 -0.609656 2.322023 1.193886 -9.134746 -19.927572 -0.336557 0.574492 25.832034 1.415646 7.069340 -10.676818 -0.441300 0.000000 -45.671800 8.533603 1.983271 -4.009105 15.016974 -11.962443 -70.683986 -3.322697 -7.714538 92.720179 -1.846734 -9.347997 -8.583469 -0.003301 0.000000 -63.977400
